<?xml version="1.0" standalone="no"?><!DOCTYPE svg PUBLIC "-//W3C//DTD SVG 1.1//EN" "http://www.w3.org/Graphics/SVG/1.1/DTD/svg11.dtd"><svg class="icon" width="200px" height="193.21px" viewBox="0 0 1060 1024" version="1.1" xmlns="http://www.w3.org/2000/svg"><path d="M42.254335 339.479777L236.446807 42.254335h546.804895L1018.329468 339.479777" fill="#F5CB93" /><path d="M59.941999 351.036337l194.192472-297.225442A21.135618 21.135618 0 0 1 236.446807 63.381502h546.804895a21.144069 21.144069 0 0 1-16.576375-8.019873l235.081991 297.225442 33.1443-26.210364-235.077766-297.229667A21.127167 21.127167 0 0 0 783.251702 21.127167H236.446807a21.135618 21.135618 0 0 0-17.687665 9.570607L24.56667 327.923216l35.375329 23.113121z" fill="#6E6E96" /><path d="M42.254335 339.479777h976.075133v642.270114H42.254335z" fill="#E3B77D" /><path d="M42.254335 360.606944h976.075133a21.127167 21.127167 0 0 1-21.127167-21.127167v642.270114a21.127167 21.127167 0 0 1 21.127167-21.127168H42.254335a21.127167 21.127167 0 0 1 21.127167 21.127168V339.479777a21.127167 21.127167 0 0 1-21.127167 21.127167z m0 642.270114h976.075133a21.127167 21.127167 0 0 0 21.127168-21.127167V339.479777a21.127167 21.127167 0 0 0-21.127168-21.127168H42.254335a21.127167 21.127167 0 0 0-21.127168 21.127168v642.270114a21.127167 21.127167 0 0 0 21.127168 21.127167z" fill="#6E6E96" /><path d="M509.164734 42.254335h42.254335v297.225442h-42.254335z" fill="#6E6E96" /><path d="M644.378605 700.754339h219.722541v126.763004h-219.722541z" fill="#FFFFFF" /><path d="M644.378605 721.881506h219.722541l-21.127167-21.127167v126.763004l21.127167-21.127167h-219.722541l21.127168 21.127167v-126.763004l-21.127168 21.127167z m0 126.763005h240.849709v-169.017339h-261.976876v169.017339h21.127167z" fill="#6E6E96" /><path d="M38.028901 985.975324l122.537571-535.244109h739.450859l114.086704 535.244109V343.70521H38.028901z" fill="#966E6E" /><path d="M475.361266 63.381502h33.803468v254.971107h-33.803468zM551.419069 63.381502h33.803468v254.971107h-33.803468z" fill="#FFFFFF" /></svg>