<?xml version="1.0" standalone="no"?><!DOCTYPE svg PUBLIC "-//W3C//DTD SVG 1.1//EN" "http://www.w3.org/Graphics/SVG/1.1/DTD/svg11.dtd"><svg class="icon" width="200px" height="200.00px" viewBox="0 0 1024 1024" version="1.1" xmlns="http://www.w3.org/2000/svg"><path d="M68.266667 810.666667h887.466666a68.266667 68.266667 0 0 1 68.266667 68.266666v145.066667H0v-145.066667a68.266667 68.266667 0 0 1 68.266667-68.266666z" fill="#111314" fill-opacity=".72" /><path d="M981.333333 878.933333a25.6 25.6 0 0 0-25.6-25.6H68.266667a25.6 25.6 0 0 0-25.6 25.6v102.4h938.666666v-102.4z" fill="#FFFFFF" /><path d="M128 896m8.533333 0l324.266667 0q8.533333 0 8.533333 8.533333l0 25.6q0 8.533333-8.533333 8.533334l-324.266667 0q-8.533333 0-8.533333-8.533334l0-25.6q0-8.533333 8.533333-8.533333Z" fill="#EDEEF0" /><path d="M512 896m8.533333 0l153.6 0q8.533333 0 8.533334 8.533333l0 25.6q0 8.533333-8.533334 8.533334l-153.6 0q-8.533333 0-8.533333-8.533334l0-25.6q0-8.533333 8.533333-8.533333Z" fill="#EDEEF0" /><path d="M725.333333 896m8.533334 0l68.266666 0q8.533333 0 8.533334 8.533333l0 25.6q0 8.533333-8.533334 8.533334l-68.266666 0q-8.533333 0-8.533334-8.533334l0-25.6q0-8.533333 8.533334-8.533333Z" fill="#EDEEF0" /><path d="M853.333333 896m8.533334 0l25.6 0q8.533333 0 8.533333 8.533333l0 25.6q0 8.533333-8.533333 8.533334l-25.6 0q-8.533333 0-8.533334-8.533334l0-25.6q0-8.533333 8.533334-8.533333Z" fill="#EDEEF0" /><path d="M913.066667 170.666667a68.266667 68.266667 0 0 1 68.266666 68.266666v460.8a68.266667 68.266667 0 0 1-68.266666 68.266667H452.266667a68.266667 68.266667 0 0 1-68.266667-68.266667V238.933333a68.266667 68.266667 0 0 1 68.266667-68.266666h460.8z" fill="#EDEEF0" /><path d="M733.866667 512h25.6c4.693333 0 8.533333 3.84 8.533333 8.533333v247.466667h-42.666667v-247.466667c0-4.693333 3.84-8.533333 8.533334-8.533333zM853.333333 170.666667h-42.666666v119.466666c0 4.693333 3.84 8.533333 8.533333 8.533334h25.6a8.533333 8.533333 0 0 0 8.533333-8.533334v-119.466666zM512 170.666667h42.666667v204.8a8.533333 8.533333 0 0 1-8.533334 8.533333h-25.6a8.533333 8.533333 0 0 1-8.533333-8.533333v-204.8z" fill="#CACBCC" /><path d="M640 384m8.533333 0l25.6 0q8.533333 0 8.533334 8.533333l0 324.266667q0 8.533333-8.533334 8.533333l-25.6 0q-8.533333 0-8.533333-8.533333l0-324.266667q0-8.533333 8.533333-8.533333Z" fill="#CACBCC" /><path d="M512 512m8.533333 0l25.6 0q8.533333 0 8.533334 8.533333l0 153.6q0 8.533333-8.533334 8.533334l-25.6 0q-8.533333 0-8.533333-8.533334l0-153.6q0-8.533333 8.533333-8.533333Z" fill="#CACBCC" /><path d="M503.466667 640h-25.6a8.533333 8.533333 0 0 0-8.533334 8.533333v119.466667h42.666667v-119.466667a8.533333 8.533333 0 0 0-8.533333-8.533333z" fill="#CACBCC" /><path d="M469.333333 640m8.533334 0l68.266666 0q8.533333 0 8.533334 8.533333l0 25.6q0 8.533333-8.533334 8.533334l-68.266666 0q-8.533333 0-8.533334-8.533334l0-25.6q0-8.533333 8.533334-8.533333Z" fill="#CACBCC" /><path d="M725.333333 512m8.533334 0l110.933333 0q8.533333 0 8.533333 8.533333l0 25.6q0 8.533333-8.533333 8.533334l-110.933333 0q-8.533333 0-8.533334-8.533334l0-25.6q0-8.533333 8.533334-8.533333Z" fill="#CACBCC" /><path d="M384 341.333333h162.133333c4.693333 0 8.533333 3.84 8.533334 8.533334v25.6a8.533333 8.533333 0 0 1-8.533334 8.533333H384v-42.666667zM648.533333 384H981.333333v42.666667h-332.8a8.533333 8.533333 0 0 1-8.533333-8.533334v-25.6c0-4.693333 3.84-8.533333 8.533333-8.533333z" fill="#CACBCC" /><path d="M874.666667 533.333333m-64 0a64 64 0 1 0 128 0 64 64 0 1 0-128 0Z" fill="#5BADFF" /><path d="M533.333333 533.333333m-64 0a64 64 0 1 0 128 0 64 64 0 1 0-128 0Z" fill="#CACBCC" /><path d="M832 277.333333m-64 0a64 64 0 1 0 128 0 64 64 0 1 0-128 0Z" fill="#CACBCC" /><path d="M321.706667 96.938667l-34.56-25.088L52.053333 322.901333l69.034667 50.176z" fill="#535456" /><path d="M161.28 338.090667l-82.048 23.509333 76.202667 265.770667 150.954666-20.181334z" fill="#535456" /><path d="M274.133333 604.714667h-97.28L106.666667 377.173333l42.666666-14.506666z" fill="#FFFFFF" /><path d="M307.2 106.666667m-42.666667 0a42.666667 42.666667 0 1 0 85.333334 0 42.666667 42.666667 0 1 0-85.333334 0Z" fill="#535456" /><path d="M106.666667 320m-64 0a64 64 0 1 0 128 0 64 64 0 1 0-128 0Z" fill="#535456" /><path d="M106.666667 320m-42.666667 0a42.666667 42.666667 0 1 0 85.333333 0 42.666667 42.666667 0 1 0-85.333333 0Z" fill="#FFFFFF" /><path d="M443.733333 372.608a21.333333 21.333333 0 0 0-2.261333-42.624 106.666667 106.666667 0 1 1 100.949333-112.085333 21.333333 21.333333 0 0 0 42.624-2.218667A149.333333 149.333333 0 1 0 443.733333 372.608z" fill="#535456" /><path d="M500.096 281.301333m-64 0a64 64 0 1 0 128 0 64 64 0 1 0-128 0Z" fill="#FFC13C" /><path d="M119.466667 597.333333h187.733333a34.133333 34.133333 0 0 1 34.133333 34.133334v179.2H85.333333v-179.2a34.133333 34.133333 0 0 1 34.133334-34.133334z" fill="#535456" /><path d="M128 725.333333m17.066667 0l51.2 0q17.066667 0 17.066666 17.066667l0 8.533333q0 17.066667-17.066666 17.066667l-51.2 0q-17.066667 0-17.066667-17.066667l0-8.533333q0-17.066667 17.066667-17.066667Z" fill="#FFFFFF" /><path d="M128 640m17.066667 0l51.2 0q17.066667 0 17.066666 17.066667l0 8.533333q0 17.066667-17.066666 17.066667l-51.2 0q-17.066667 0-17.066667-17.066667l0-8.533333q0-17.066667 17.066667-17.066667Z" fill="#FFFFFF" /></svg>