<?xml version="1.0" standalone="no"?><!DOCTYPE svg PUBLIC "-//W3C//DTD SVG 1.1//EN" "http://www.w3.org/Graphics/SVG/1.1/DTD/svg11.dtd"><svg class="icon" width="200px" height="200.00px" viewBox="0 0 1024 1024" version="1.1" xmlns="http://www.w3.org/2000/svg"><path d="M451.5 385.3V99.4c0-26.2 21.4-47.6 47.6-47.6 26.2 0 47.6 21.4 47.6 47.6v285.9c0 26.2-21.4 47.6-47.6 47.6-26.2 0.1-47.6-21.4-47.6-47.6z" fill="#F8DBC8" /><path d="M499.2 457c-39.5 0-71.6-32.1-71.6-71.6v-286c0-39.5 32.1-71.6 71.6-71.6s71.6 32.1 71.6 71.6v285.9c0 39.5-32.1 71.7-71.6 71.7z m0-381.2c-13 0-23.6 10.6-23.6 23.6v285.9c0 13 10.6 23.6 23.6 23.6 13 0 23.6-10.6 23.6-23.6V99.4c0-13-10.6-23.6-23.6-23.6z" fill="#5D4638" /><path d="M598.2 494.9H407.6c-26.2 0-47.6-21.4-47.6-47.6V300.5c0-32 21.4-47.6 47.6-47.6h190.6c26.2 0 47.6 15.6 47.6 47.6v146.8c0 26.1-21.4 47.6-47.6 47.6z" fill="#F8DBC8" /><path d="M598.2 495.9H407.6c-26.8 0-48.6-21.8-48.6-48.6V300.5c0-15.3 5-28 14.3-36.6 8.6-7.9 20.5-12.1 34.3-12.1h190.6c13.8 0 25.7 4.2 34.3 12.1 9.4 8.6 14.3 21.2 14.3 36.6v146.8c0 26.7-21.8 48.6-48.6 48.6zM407.6 253.8c-22.6 0-46.6 12.3-46.6 46.6v146.8c0 25.7 20.9 46.6 46.6 46.6h190.6c25.7 0 46.6-20.9 46.6-46.6V300.5c0-34.4-24.1-46.6-46.6-46.6H407.6z" fill="#5D4638" /><path d="M598.2 245.4H407.6c-26.2 0-47.6 15.6-47.6 47.6v52.1c0-32 21.4-47.6 47.6-47.6h190.6c26.2 0 47.6 15.6 47.6 47.6V293c0-32-21.4-47.6-47.6-47.6z" fill="#FFFFFF" /><path d="M659.2 129.2H403.9c-26.2 0-47.6-21.4-47.6-47.6 0-26.2 21.4-47.6 47.6-47.6h255.4c26.2 0 47.6 21.4 47.6 47.6 0 26.2-21.5 47.6-47.7 47.6z" fill="#F8DBC8" /><path d="M659.2 153.2H403.9c-39.5 0-71.6-32.1-71.6-71.6 0-39.5 32.1-71.6 71.6-71.6h255.4c39.5 0 71.6 32.1 71.6 71.6 0 39.5-32.2 71.6-71.7 71.6zM403.9 57.9c-13 0-23.6 10.6-23.6 23.6 0 13 10.6 23.6 23.6 23.6h255.4c13 0 23.6-10.6 23.6-23.6 0-13-10.6-23.6-23.6-23.6H403.9zM598.2 518.9H407.6c-39.5 0-71.6-32.1-71.6-71.6V300.5c0-27.7 11.8-44.4 21.8-53.5 12.8-11.7 30.5-18.1 49.9-18.1h190.6c19.4 0 37.1 6.4 49.9 18.1 9.9 9.1 21.8 25.8 21.8 53.5v146.8c-0.2 39.4-32.3 71.6-71.8 71.6zM407.6 276.8c-23.6 0-23.6 17.8-23.6 23.6v146.8c0 13 10.6 23.6 23.6 23.6h190.6c13 0 23.6-10.6 23.6-23.6V300.5c0-5.8 0-23.6-23.6-23.6H407.6z" fill="#5D4638" /><path d="M713.4 979H298.3c-26.2 0-47.6-21.4-47.6-47.6V541.9c0-87.7 64.3-142.9 142.9-142.9h224.6c78.6 0 142.9 53 142.9 142.9v389.5c0 26.2-21.4 47.6-47.7 47.6z" fill="#F8DBC8" /><path d="M713.4 980H298.3c-26.8 0-48.6-21.8-48.6-48.6V541.9c0-42.3 14.6-78.6 42.3-105.1 26.2-25.1 62.3-38.9 101.6-38.9h224.6c39.6 0 75.7 13.5 101.6 38 27.7 26.2 42.3 62.8 42.3 105.9v389.5c0 26.9-21.8 48.7-48.7 48.7zM393.6 400c-82.2 0-141.9 59.7-141.9 141.9v389.5c0 25.7 20.9 46.6 46.6 46.6h415.2c25.7 0 46.6-20.9 46.6-46.6V541.9c0-83.6-58.4-141.9-141.9-141.9H393.6z" fill="#5D4638" /><path d="M713.4 926.7H298.3c-26.2 0-47.6-21.4-47.6-47.6v52.3c0 26.2 21.4 47.6 47.6 47.6h415.2c26.2 0 47.6-21.4 47.6-47.6v-52.3c0 26.2-21.4 47.6-47.7 47.6z" fill="#EEB28A" /><path d="M761.1 583.8H595.2C537.3 583.8 490 631.1 490 689c0 57.9 47.3 105.2 105.2 105.2h165.9V583.8z" fill="#FFFFFF" /><path d="M761.1 818.2H595.2c-71.3 0-129.2-58-129.2-129.2 0-71.3 58-129.2 129.2-129.2h165.9c13.3 0 24 10.7 24 24v210.4c0 13.3-10.7 24-24 24zM595.2 607.8c-44.8 0-81.2 36.4-81.2 81.2s36.4 81.2 81.2 81.2h141.9V607.8H595.2z" fill="#5D4638" /><path d="M713.4 1003H298.3c-39.5 0-71.6-32.1-71.6-71.6V541.9c0-48 17.5-91.2 49.4-121.7C306.6 391 348.4 375 393.6 375h224.6c45.5 0 87.2 15.7 117.4 44.3 32.4 30.6 49.5 73 49.5 122.6v389.5c0 39.5-32.1 71.6-71.7 71.6zM393.6 423c-70 0-118.9 48.9-118.9 118.9v389.5c0 13 10.6 23.6 23.6 23.6h415.2c13 0 23.6-10.6 23.6-23.6V541.9c0-82.2-59.7-118.9-118.9-118.9H393.6z" fill="#5D4638" /><path d="M356.2 828.1c-13.1 0-23.8-10.7-23.8-23.8V562c0-13.1 10.7-23.8 23.8-23.8 13.1 0 23.8 10.7 23.8 23.8v242.3c0 13.1-10.7 23.8-23.8 23.8z" fill="#FFFFFF" /><path d="M356.2 516.7c-13.1 0-23.8-10.7-23.8-23.8 0-13.1 10.7-23.8 23.8-23.8 13.1 0 23.8 10.7 23.8 23.8 0 13.1-10.7 23.8-23.8 23.8z" fill="#FFFFFF" /></svg>