<?xml version="1.0" standalone="no"?><!DOCTYPE svg PUBLIC "-//W3C//DTD SVG 1.1//EN" "http://www.w3.org/Graphics/SVG/1.1/DTD/svg11.dtd"><svg class="icon" width="200px" height="200.00px" viewBox="0 0 1024 1024" version="1.1" xmlns="http://www.w3.org/2000/svg"><path d="M648.672 293.575h-235.3v-145.1h235.3z" fill="#FFAE85" /><path d="M619.372 148.428h-176.6v-101.4h176.6zM209.8 973.4c35.6 8.5 398-0.5 520.5-1.2 25.3-0.1 47.1-17.8 52.7-42.5 7.8-34.3 15.7-88.7 12.2-160.3-6.4-129.3-25.8-223.4-38-284.2-5.2-25.7 30.6-51.4 30.1-77.5C785.1 291 670.1 250.2 631.1 238c-41.7-13.1-139.9-1.2-174.9 10.3C423 259.2 219.5 322 197.3 545.7c-13.8 138.9 51.5 156.6 48.1 243.3-3.5 86.2-87.3 172-35.6 184.4zM258 589.2c0-91.1 35.3-165 78.9-165s78.9 73.9 78.9 165-35.3 165-78.9 165-78.9-73.8-78.9-165z" fill="#A9EBFF" /><path d="M795.3 769.4c-6.4-129.3-25.8-223.4-38-284.2-5.2-25.7 30.6-51.4 30.1-77.5C785.1 291 670.1 250.2 631.1 238c-11.3-3.5-26.6-5.3-43.7-5.6 45.8 15.6 144 58.7 146 166.4 0.5 26-35.3 51.7-30.1 77.5 12.2 60.8 31.7 154.9 38 284.2 3.5 71.6-4.4 126-12.2 160.3-5.6 24.7-27.4 42.3-52.7 42.5-102.2 0.6-371.3 7-478.4 4.1 2.7 2.8 6.6 4.8 11.9 6.1 35.6 8.5 398-0.5 520.5-1.2 25.3-0.1 47.1-17.8 52.7-42.5 7.7-34.4 15.7-88.8 12.2-160.4z" fill="#42B3C6" /><path d="M465.4 840.8h199.2c34.4 0 61.2-29.8 57.5-64l-26.7-250.3c0-17.2-13.9-31.2-31.2-31.2H509c-24.7 0-44.7 20-44.7 44.7 0 0 8.2 89.7 2 118.8-5.8 27.3-37.4 74.9-47.2 101.1-3.8 10.2-3.1 21.6-2.6 32.6l0.1 1.5c1.1 26.2 22.6 46.8 48.8 46.8z" fill="#30B6F9" /><path d="M722.1 776.8l-26.7-250.3c0-17.2-13.9-31.2-31.2-31.2h-23.1c5.7 5.6 9.3 13.5 9.3 22.2l26.7 250.3c3.6 34.2-23.1 64-57.5 64H437.1c8 5.7 17.7 9 28.2 9h199.2c34.4 0 61.2-29.8 57.6-64z" fill="#1787AA" /><path d="M810.2 768.6c-6.2-127.1-25-220.1-37.3-281.6l-1-4.8c-1.5-7.7 5.7-18.9 12.6-29.8 8.5-13.2 18.1-28.2 17.7-45-1-54.7-24.6-100.3-70.1-135.6-23.5-18.3-49-30.5-68.5-38.3v-85.1c0-8.3-6.7-15-15-15h-14.3V47c0-8.3-6.7-15-15-15H442.7c-8.3 0-15 6.7-15 15v86.4h-14.3c-8.3 0-15 6.7-15 15l2.1 105c-26.1 11.7-58.4 29.1-90.3 54.5-33.5 26.7-61.1 57.9-81.9 92.8-25.3 42.5-40.8 90.7-46 143.5-8.3 83.5 10.8 125.6 27.6 162.7 11.7 25.7 21.7 47.9 20.4 81.4-1.4 35.1-17.4 70.5-31.6 101.9-15.1 33.4-27 59.8-17.3 79.5 4.5 9.2 12.9 15.4 24.8 18.2 12.3 2.9 54.3 4 116.8 4 68.8 0 162.4-1.3 268.6-3 56.9-0.9 106-1.7 138.7-1.9 32.4-0.2 60.1-22.5 67.3-54.1 7.8-34 16.3-90.2 12.6-164.3zM457.7 62h146.6v71.4H457.7V62z m-29.3 101.4H633.6v59.7c-46.7-13.5-145.5-1.1-182.2 11l-1.9 0.6c-4.9 1.6-12.1 4-21.2 7.3v-78.6z m340 762.9c-4.1 18-19.8 30.7-38.2 30.8-32.8 0.2-82 1-139 1.9-140.9 2.2-353.7 5.6-377.9-0.2-2.9-0.7-4.6-1.6-4.9-2.2-0.3-0.6-1.6-4.3 2.2-16.3 3.3-10.5 9.2-23.7 15.6-37.7 14.5-32.1 32.6-72.1 34.2-113 1.6-40.6-10.4-67-23-95-16-35.3-32.6-71.9-25.1-147.4 8.8-88.6 48.1-161.2 116.7-215.8 54.6-43.5 111.3-62.1 130-68.2l1.9-0.6c22.8-7.5 76.1-15.3 119.1-15.3 18.6 0 35.3 1.5 46.7 5 65.5 20.6 144 64.3 145.7 155.7 0.1 7.7-6.5 18.2-13 28.2-9.7 15.2-20.7 32.4-16.8 51.9l1 4.8c12.2 60.6 30.7 152.3 36.8 277.1 3.4 70.8-4.6 124.1-12 156.3z" fill="#3F2D20" /><path d="M430.9 589.2c0-46.3-8.7-90-24.6-123.2-17.5-36.7-42.2-56.9-69.3-56.9-27.2 0-51.8 20.2-69.3 56.9-15.9 33.1-24.6 76.9-24.6 123.2s8.7 90 24.6 123.2c17.5 36.7 42.2 56.9 69.3 56.9 27.2 0 51.8-20.2 69.3-56.9 15.8-33.2 24.6-76.9 24.6-123.2z m-94 150c-30.2 0-63.9-61.6-63.9-150s33.7-150 63.9-150c30.2 0 63.9 61.6 63.9 150 0.1 88.4-33.6 150-63.9 150zM705.4 526c-0.3-22.4-18.6-40.6-41.2-40.6H509c-30.1 0-54.7 24.5-54.7 54.7v0.9c2.2 24.5 7 93.2 2.2 115.8-3.1 14.7-15.5 37.9-26.5 58.3-8.3 15.4-16.1 30-20.3 41.3-4.3 11.6-3.8 23.8-3.3 34.7l0.1 3.3c1.3 31.6 27.1 56.4 58.8 56.4h199.2c19.2 0 37.6-8.2 50.4-22.5 12.8-14.3 19-33.4 17-52.6L705.4 526z m-5.3 289c-9.1 10.1-22 15.9-35.6 15.9H465.4c-20.9 0-37.9-16.4-38.8-37.2l-0.1-3.4c-0.4-9.8-0.8-19.1 2.1-26.8 3.8-10.1 11.2-24.1 19.2-38.9 12.1-22.7 24.7-46.1 28.4-63.6 6.3-29.4-1.1-113.3-1.8-121.3 0.2-18.9 15.7-34.2 34.6-34.2h155.2c11.7 0 21.2 9.5 21.2 21.2 0 0.4 0 0.7 0.1 1.1l26.7 250.3c1.4 13.3-3 26.8-12.1 36.9z" fill="#3F2D20" /></svg>